{"glyphs":{"0":{"ha":692,"x_min":0,"x_max":0,"o":"m 511 0 l 181 0 l 69 111 l 69 778 l 181 889 l 511 889 l 622 778 l 622 111 m 461 735 l 231 735 l 231 154 l 461 154 "},"1":{"ha":335,"x_min":0,"x_max":0,"o":"m 265 0 l 104 0 l 104 763 l 21 763 l 21 808 l 101 889 l 265 889 "},"2":{"ha":692,"x_min":0,"x_max":0,"o":"m 69 0 l 69 303 l 461 610 l 461 735 l 69 733 l 69 778 l 181 889 l 511 889 l 622 778 l 622 538 l 231 231 l 231 154 l 622 154 l 622 0 "},"3":{"ha":657,"x_min":0,"x_max":0,"o":"m 476 0 l 146 0 l 35 111 l 35 154 l 426 154 l 426 378 l 228 378 l 228 539 l 426 539 l 426 735 l 35 735 l 35 778 l 146 889 l 476 889 l 588 778 l 588 528 l 518 458 l 588 389 l 588 111 "},"4":{"ha":643,"x_min":0,"x_max":0,"o":"m 531 207 l 531 0 l 371 0 l 371 207 l 96 207 l 0 344 l 374 889 l 531 889 l 531 364 l 622 364 l 622 207 m 371 619 l 199 364 l 371 364 "},"5":{"ha":692,"x_min":0,"x_max":0,"o":"m 511 0 l 181 0 l 69 111 l 69 154 l 461 154 l 461 399 l 181 399 l 69 510 l 69 889 l 622 889 l 622 735 l 231 735 l 231 560 l 511 560 l 622 449 l 622 111 "},"6":{"ha":692,"x_min":0,"x_max":0,"o":"m 511 0 l 181 0 l 69 111 l 69 778 l 181 889 l 511 889 l 622 778 l 622 735 l 231 735 l 231 539 l 511 539 l 622 428 l 622 111 m 461 378 l 231 378 l 231 154 l 461 154 "},"7":{"ha":574,"x_min":0,"x_max":0,"o":"m 226 0 l 60 0 l 401 735 l 7 735 l 7 889 l 560 889 l 560 707 "},"8":{"ha":692,"x_min":0,"x_max":0,"o":"m 511 0 l 181 0 l 69 111 l 69 385 l 139 454 l 69 524 l 69 778 l 181 889 l 511 889 l 622 778 l 622 524 l 553 454 l 622 385 l 622 111 m 461 735 l 231 735 l 231 532 l 461 532 m 461 376 l 231 376 l 231 154 l 461 154 "},"9":{"ha":692,"x_min":0,"x_max":0,"o":"m 511 0 l 181 0 l 69 111 l 69 154 l 461 154 l 461 356 l 181 356 l 69 467 l 69 778 l 181 889 l 511 889 l 622 778 l 622 111 m 461 735 l 231 735 l 231 517 l 461 517 "},"\u0000":{"ha":347,"x_min":0,"x_max":0,"o":""}," ":{"ha":347,"x_min":0,"x_max":0,"o":""},"!":{"ha":328,"x_min":0,"x_max":0,"o":"m 224 254 l 103 254 l 56 889 l 272 889 m 81 0 l 81 167 l 247 167 l 247 0 "},"\"":{"ha":476,"x_min":0,"x_max":0,"o":"m 381 546 l 279 546 l 253 889 l 407 889 m 197 546 l 96 546 l 69 889 l 224 889 "},"#":{"ha":742,"x_min":0,"x_max":0,"o":"m 508 263 l 461 0 l 358 0 l 406 263 l 278 263 l 231 0 l 128 0 l 175 263 l 69 263 l 69 363 l 194 363 l 225 532 l 69 532 l 69 632 l 243 632 l 290 889 l 390 889 l 344 632 l 474 632 l 521 889 l 621 889 l 575 632 l 672 632 l 672 532 l 557 532 l 526 363 l 672 363 l 672 263 m 326 532 l 296 363 l 425 363 l 456 532 "},"$":{"ha":650,"x_min":0,"x_max":0,"o":"m 469 89 l 386 89 l 386 0 l 264 0 l 264 89 l 181 89 l 69 200 l 69 236 l 419 236 l 419 369 l 181 369 l 69 481 l 69 699 l 181 810 l 264 810 l 264 894 l 386 896 l 386 810 l 469 810 l 581 699 l 581 663 l 231 663 l 231 522 l 469 522 l 581 411 l 581 200 "},"%":{"ha":914,"x_min":0,"x_max":0,"o":"m 317 467 l 143 467 l 54 556 l 54 797 l 143 886 l 317 886 l 406 797 l 406 556 m 278 764 l 182 764 l 182 589 l 278 589 m 308 219 l 232 285 l 617 689 l 694 624 m 775 -1 l 601 -1 l 513 88 l 513 329 l 601 418 l 775 418 l 864 329 l 864 88 m 736 296 l 640 296 l 640 121 l 736 121 "},"&":{"ha":707,"x_min":0,"x_max":0,"o":"m 619 539 l 693 539 l 693 378 l 619 378 l 619 111 l 511 0 l 181 0 l 69 111 l 69 389 l 139 458 l 69 528 l 69 778 l 181 889 l 350 889 l 461 778 l 461 735 l 231 735 l 231 539 l 464 539 l 585 681 b 619 679 585 681 589 682 m 231 154 l 458 154 l 458 378 l 231 378 "},"’":{"ha":328,"x_min":0,"x_max":0,"o":"m 161 511 l 69 511 l 69 889 l 258 889 "},"(":{"ha":399,"x_min":0,"x_max":0,"o":"m 251 -218 l 83 -50 l 83 889 l 251 1057 l 354 949 l 235 839 l 235 0 l 357 -112 "},")":{"ha":399,"x_min":0,"x_max":0,"o":"m 147 -218 l 42 -112 l 164 0 l 164 839 l 44 949 l 147 1057 l 315 889 l 315 -50 "},"*":{"ha":649,"x_min":0,"x_max":0,"o":"m 426 601 l 528 463 l 429 390 l 328 529 l 226 390 l 128 463 l 229 601 l 65 654 l 103 771 l 267 718 l 267 889 l 389 889 l 389 718 l 551 771 l 589 654 "},"+":{"ha":678,"x_min":0,"x_max":0,"o":"m 413 329 l 413 126 l 265 126 l 265 329 l 63 329 l 63 476 l 265 476 l 265 678 l 413 678 l 413 476 l 615 476 l 615 329 "},",":{"ha":296,"x_min":0,"x_max":0,"o":"m 153 -196 l 61 -196 l 61 182 l 250 182 "},"-":{"ha":528,"x_min":0,"x_max":0,"o":"m 56 329 l 56 476 l 472 476 l 472 329 "},".":{"ha":342,"x_min":0,"x_max":0,"o":"m 83 0 l 83 182 l 258 182 l 258 0 "},"/":{"ha":447,"x_min":0,"x_max":0,"o":"m 100 -136 l -26 -136 l 340 958 l 468 958 "},":":{"ha":342,"x_min":0,"x_max":0,"o":"m 83 371 l 83 553 l 258 553 l 258 371 m 83 0 l 83 182 l 258 182 l 258 0 "},";":{"ha":356,"x_min":0,"x_max":0,"o":"m 97 371 l 97 553 l 272 553 l 272 371 m 189 -196 l 97 -196 l 97 182 l 286 182 "},"<":{"ha":567,"x_min":0,"x_max":0,"o":"m 311 407 l 482 208 l 383 108 l 83 407 l 383 707 l 483 606 "},"=":{"ha":678,"x_min":0,"x_max":0,"o":"m 83 447 l 83 594 l 594 594 l 594 447 m 83 210 l 83 357 l 594 357 l 594 210 "},">":{"ha":567,"x_min":0,"x_max":0,"o":"m 183 108 l 85 208 l 256 407 l 83 606 l 183 707 l 483 407 "},"?":{"ha":719,"x_min":0,"x_max":0,"o":"m 525 364 l 406 364 l 406 254 l 244 254 l 244 414 l 356 525 l 475 525 l 475 735 l 83 733 l 83 778 l 194 889 l 525 889 l 636 778 l 636 475 m 242 0 l 242 167 l 408 167 l 408 0 "},"@":{"ha":949,"x_min":0,"x_max":0,"o":"m 718 790 l 238 790 l 238 679 l 518 679 l 629 568 l 629 0 l 593 0 l 468 81 l 388 0 l 188 0 l 76 111 l 76 289 l 201 414 l 468 414 l 468 525 l 76 525 l 76 833 l 188 944 l 768 944 l 879 833 l 879 -111 l 768 -222 l 104 -222 l -28 -67 l 718 -68 m 468 267 l 238 267 l 238 147 l 468 147 "},"A":{"ha":657,"x_min":0,"x_max":0,"o":"m 501 0 l 439 218 l 217 218 l 161 0 l 0 0 l 254 889 l 401 889 l 657 0 m 328 631 l 258 364 l 396 364 "},"B":{"ha":692,"x_min":0,"x_max":0,"o":"m 511 0 l 69 0 l 69 889 l 511 889 l 622 778 l 622 521 l 553 451 l 622 382 l 622 111 m 461 375 l 231 375 l 231 154 l 461 154 m 461 735 l 231 735 l 231 528 l 461 528 "},"C":{"ha":640,"x_min":0,"x_max":0,"o":"m 494 0 l 181 0 l 69 111 l 69 778 l 181 889 l 494 889 l 606 778 l 606 735 l 231 735 l 231 154 l 606 154 l 606 111 "},"D":{"ha":693,"x_min":0,"x_max":0,"o":"m 513 0 l 69 0 l 69 889 l 513 889 l 624 778 l 624 111 m 463 735 l 232 735 l 232 154 l 463 154 "},"E":{"ha":665,"x_min":0,"x_max":0,"o":"m 69 0 l 69 889 l 624 889 l 624 735 l 232 735 l 232 525 l 497 525 l 497 364 l 232 364 l 232 154 l 624 154 l 624 0 "},"F":{"ha":633,"x_min":0,"x_max":0,"o":"m 613 735 l 231 735 l 231 518 l 486 518 l 486 357 l 231 357 l 231 0 l 69 0 l 69 889 l 613 889 "},"G":{"ha":692,"x_min":0,"x_max":0,"o":"m 622 735 l 231 735 l 231 164 l 468 164 l 468 497 l 622 497 l 622 0 l 588 0 l 468 78 l 390 0 l 181 0 l 69 111 l 69 778 l 181 889 l 511 889 l 622 778 "},"H":{"ha":693,"x_min":0,"x_max":0,"o":"m 624 0 l 463 0 l 463 364 l 232 364 l 232 0 l 71 0 l 71 889 l 232 889 l 232 525 l 463 525 l 463 889 l 624 889 "},"I":{"ha":300,"x_min":0,"x_max":0,"o":"m 231 0 l 69 0 l 69 889 l 231 889 "},"J":{"ha":608,"x_min":0,"x_max":0,"o":"m 428 0 l 118 0 l 7 111 l 7 154 l 378 154 l 378 889 l 539 889 l 539 111 "},"K":{"ha":771,"x_min":0,"x_max":0,"o":"m 604 0 l 417 475 l 231 232 l 231 0 l 69 0 l 69 889 l 231 889 l 231 471 l 549 889 l 738 889 l 535 619 l 771 0 "},"L":{"ha":615,"x_min":0,"x_max":0,"o":"m 69 0 l 69 889 l 231 889 l 231 154 l 588 154 l 588 0 "},"M":{"ha":789,"x_min":0,"x_max":0,"o":"m 719 0 l 564 0 l 563 465 l 435 147 l 354 147 l 226 465 l 226 0 l 69 0 l 69 889 l 217 889 l 394 449 l 572 889 l 719 889 "},"N":{"ha":692,"x_min":0,"x_max":0,"o":"m 482 0 l 228 504 l 229 0 l 69 0 l 69 889 l 210 889 l 464 385 l 464 889 l 622 889 l 622 0 "},"O":{"ha":692,"x_min":0,"x_max":0,"o":"m 511 0 l 181 0 l 69 111 l 69 778 l 181 889 l 511 889 l 622 778 l 622 111 m 461 735 l 231 735 l 231 154 l 461 154 "},"P":{"ha":692,"x_min":0,"x_max":0,"o":"m 511 343 l 231 343 l 231 0 l 69 0 l 69 889 l 511 889 l 622 778 l 622 454 m 461 735 l 231 735 l 231 497 l 461 497 "},"Q":{"ha":692,"x_min":0,"x_max":0,"o":"m 515 0 l 419 0 l 403 -224 l 301 -224 l 283 0 l 181 0 l 69 111 l 69 778 l 181 889 l 511 889 l 622 778 l 622 111 m 461 735 l 231 735 l 231 154 l 461 154 "},"R":{"ha":671,"x_min":0,"x_max":0,"o":"m 471 0 l 338 343 l 231 343 l 231 0 l 69 0 l 69 889 l 511 889 l 622 778 l 622 454 l 511 343 l 650 0 m 461 735 l 231 735 l 231 504 l 461 504 "},"S":{"ha":692,"x_min":0,"x_max":0,"o":"m 511 0 l 143 0 l 72 71 l 72 164 l 454 164 l 454 369 l 181 369 l 69 481 l 69 778 l 181 889 l 549 889 l 619 818 l 619 725 l 238 725 l 238 533 l 511 533 l 622 421 l 622 111 "},"T":{"ha":650,"x_min":0,"x_max":0,"o":"m 636 735 l 406 735 l 406 0 l 244 0 l 244 735 l 14 733 l 14 889 l 636 889 "},"U":{"ha":692,"x_min":0,"x_max":0,"o":"m 511 0 l 181 0 l 69 111 l 69 889 l 231 889 l 231 154 l 461 154 l 461 889 l 622 889 l 622 111 "},"V":{"ha":638,"x_min":0,"x_max":0,"o":"m 397 0 l 242 0 l 0 889 l 171 889 l 321 269 b 464 889 321 269 329 317 l 638 889 "},"W":{"ha":771,"x_min":0,"x_max":0,"o":"m 631 0 l 488 0 l 385 393 l 282 0 l 139 0 l 0 889 l 168 889 l 233 386 l 343 808 l 428 808 l 536 393 l 603 889 l 771 889 "},"X":{"ha":699,"x_min":0,"x_max":0,"o":"m 526 0 l 351 304 l 181 0 l 1 0 l 257 443 l 0 889 l 179 889 l 351 583 l 518 889 l 699 889 l 446 444 l 699 0 "},"Y":{"ha":663,"x_min":0,"x_max":0,"o":"m 415 364 l 415 0 l 256 0 l 254 364 l 0 889 l 188 889 l 336 538 l 479 889 l 663 889 "},"Z":{"ha":636,"x_min":0,"x_max":0,"o":"m 42 0 l 42 161 l 406 735 l 42 733 l 42 889 l 594 889 l 594 728 l 231 154 l 594 153 l 594 0 "},"[":{"ha":414,"x_min":0,"x_max":0,"o":"m 83 -206 l 83 961 l 331 961 l 331 814 l 231 814 l 231 -58 l 331 -58 l 331 -206 "},"\\":{"ha":447,"x_min":0,"x_max":0,"o":"m 347 -136 l -21 958 l 107 958 l 474 -136 "},"]":{"ha":414,"x_min":0,"x_max":0,"o":"m 83 -206 l 83 -58 l 183 -58 l 183 814 l 83 814 l 83 961 l 331 961 l 331 -206 "},"^":{"ha":733,"x_min":0,"x_max":0,"o":"m 554 876 l 369 994 l 186 876 l 122 989 l 369 1175 l 617 989 "},"_":{"ha":636,"x_min":0,"x_max":0,"o":"m 0 -119 l 0 0 l 636 0 l 636 -119 "},"‘":{"ha":328,"x_min":0,"x_max":0,"o":"m 167 511 l 69 889 l 258 889 l 258 511 "},"a":{"ha":678,"x_min":0,"x_max":0,"o":"m 608 0 l 572 0 l 447 81 l 367 0 l 167 0 l 56 111 l 56 303 l 181 428 l 447 428 l 447 553 l 69 553 l 69 596 l 181 707 l 497 707 l 608 596 m 447 281 l 217 281 l 217 147 l 447 147 "},"b":{"ha":678,"x_min":0,"x_max":0,"o":"m 497 0 l 311 0 l 231 81 l 106 0 l 71 0 l 69 893 l 204 943 l 231 944 l 231 626 l 311 707 l 497 707 l 608 596 l 608 111 m 447 553 l 231 553 l 231 154 l 447 154 "},"c":{"ha":636,"x_min":0,"x_max":0,"o":"m 490 0 l 181 0 l 69 111 l 69 596 l 181 707 l 490 707 l 601 596 l 601 553 l 231 553 l 231 154 l 601 154 l 601 111 "},"d":{"ha":678,"x_min":0,"x_max":0,"o":"m 608 0 l 572 0 l 447 81 l 367 0 l 181 0 l 69 111 l 69 596 l 181 707 l 367 707 l 447 626 l 447 893 l 576 943 l 608 943 m 447 553 l 231 553 l 231 154 l 447 154 "},"e":{"ha":685,"x_min":0,"x_max":0,"o":"m 511 0 l 181 0 l 69 111 l 69 596 l 181 707 l 511 707 l 622 596 l 622 385 l 511 274 l 231 274 l 231 147 l 622 147 l 622 111 m 461 553 l 231 553 l 231 421 l 461 421 "},"f":{"ha":432,"x_min":0,"x_max":0,"o":"m 201 944 l 390 944 l 390 790 l 251 790 l 251 707 l 390 707 l 390 553 l 251 553 l 251 0 l 90 0 l 90 553 l 21 553 l 21 707 l 90 707 l 90 833 "},"g":{"ha":692,"x_min":0,"x_max":0,"o":"m 589 707 l 622 707 l 622 -110 l 511 -221 l 188 -221 l 76 -110 l 76 -74 l 461 -74 l 461 150 l 381 69 l 181 69 l 69 181 l 69 596 l 181 707 l 381 707 l 461 626 m 461 553 l 231 553 l 231 221 l 461 221 "},"h":{"ha":678,"x_min":0,"x_max":0,"o":"m 608 0 l 447 0 l 447 553 l 231 553 l 231 0 l 71 0 l 69 894 l 200 943 l 231 944 l 231 626 l 311 707 l 497 707 l 608 596 "},"i":{"ha":300,"x_min":0,"x_max":0,"o":"m 231 0 l 69 0 l 69 707 l 231 707 m 69 778 l 69 944 l 231 944 l 231 778 "},"j":{"ha":300,"x_min":0,"x_max":0,"o":"m 119 -224 l 0 -224 l 0 -69 l 69 -69 l 69 707 l 231 707 l 231 -112 m 69 778 l 69 944 l 231 944 l 231 778 "},"k":{"ha":735,"x_min":0,"x_max":0,"o":"m 561 1 l 383 340 l 229 186 l 229 0 l 69 0 l 69 892 l 200 942 l 229 944 l 229 385 l 539 707 l 735 707 l 503 464 l 735 1 "},"l":{"ha":301,"x_min":0,"x_max":0,"o":"m 232 0 l 69 0 l 69 890 l 200 942 l 232 944 "},"m":{"ha":1014,"x_min":0,"x_max":0,"o":"m 944 0 l 783 0 l 783 553 l 588 553 l 588 0 l 426 0 l 426 553 l 231 553 l 232 0 l 69 0 l 69 707 l 106 707 l 231 626 l 311 707 l 476 707 l 572 611 l 668 707 l 833 707 l 944 596 "},"n":{"ha":678,"x_min":0,"x_max":0,"o":"m 608 0 l 447 0 l 447 553 l 231 553 l 231 0 l 69 0 l 69 707 l 106 707 l 231 626 l 311 707 l 497 707 l 608 596 "},"o":{"ha":692,"x_min":0,"x_max":0,"o":"m 511 0 l 181 0 l 69 111 l 69 596 l 181 707 l 511 707 l 622 596 l 622 111 m 461 553 l 231 553 l 231 154 l 461 154 "},"p":{"ha":678,"x_min":0,"x_max":0,"o":"m 497 0 l 311 0 l 231 81 l 231 -222 l 71 -222 l 69 707 l 106 707 l 231 626 l 311 707 l 497 707 l 608 596 l 608 111 m 447 553 l 231 553 l 231 154 l 447 154 "},"q":{"ha":678,"x_min":0,"x_max":0,"o":"m 608 -222 l 447 -222 l 447 81 l 367 0 l 181 0 l 69 111 l 69 596 l 181 707 l 367 707 l 447 626 l 572 707 l 608 707 m 447 553 l 231 553 l 231 154 l 447 154 "},"r":{"ha":535,"x_min":0,"x_max":0,"o":"m 521 553 l 231 553 l 231 0 l 71 0 l 69 707 l 106 707 l 231 626 l 311 707 l 440 707 l 521 626 "},"s":{"ha":650,"x_min":0,"x_max":0,"o":"m 469 0 l 181 0 l 69 111 l 69 147 l 419 147 l 419 281 l 181 281 l 69 392 l 69 596 l 181 707 l 469 707 l 581 596 l 581 560 l 231 560 l 231 433 l 469 433 l 581 322 l 581 111 "},"t":{"ha":429,"x_min":0,"x_max":0,"o":"m 256 553 l 256 154 l 406 154 l 406 0 l 206 0 l 94 111 l 94 553 l 11 553 l 11 589 l 94 707 l 94 882 l 221 944 l 256 944 l 256 707 l 408 707 l 408 553 "},"u":{"ha":678,"x_min":0,"x_max":0,"o":"m 608 0 l 572 0 l 447 81 l 367 0 l 181 0 l 69 111 l 69 707 l 231 707 l 231 154 l 447 154 l 447 707 l 608 707 "},"v":{"ha":631,"x_min":0,"x_max":0,"o":"m 393 0 l 238 0 l 0 707 l 175 707 l 317 261 l 464 707 l 631 707 "},"w":{"ha":835,"x_min":0,"x_max":0,"o":"m 657 0 l 508 0 l 415 317 l 322 0 l 172 0 l 0 707 l 172 707 l 256 296 l 372 635 l 454 635 l 575 296 l 663 707 l 835 707 "},"x":{"ha":635,"x_min":0,"x_max":0,"o":"m 478 0 l 321 256 l 169 0 l 0 0 l 222 357 l 7 707 l 182 707 l 321 458 l 467 707 l 635 707 l 421 357 l 636 0 "},"y":{"ha":649,"x_min":0,"x_max":0,"o":"m 324 -189 l 156 -189 l 254 69 l 0 707 l 172 707 l 335 286 l 478 707 l 649 707 "},"z":{"ha":588,"x_min":0,"x_max":0,"o":"m 35 0 l 35 147 l 353 560 l 35 560 l 35 707 l 553 707 l 553 560 l 235 147 l 553 150 l 553 0 "},"{":{"ha":449,"x_min":0,"x_max":0,"o":"m 257 -206 l 153 -101 l 153 207 l 63 297 l 63 458 l 153 549 l 153 858 l 257 963 l 400 963 l 400 815 l 300 815 l 300 482 l 196 378 l 300 274 l 300 -58 l 400 -58 l 400 -206 "},"|":{"ha":296,"x_min":0,"x_max":0,"o":"m 83 -206 l 83 1036 l 211 1036 l 211 -206 "},"}":{"ha":449,"x_min":0,"x_max":0,"o":"m 310 207 l 310 -101 l 206 -206 l 63 -206 l 63 -58 l 163 -58 l 163 274 l 267 378 l 163 482 l 163 815 l 63 815 l 63 963 l 206 963 l 310 858 l 310 549 l 400 458 l 400 297 "},"~":{"ha":689,"x_min":0,"x_max":0,"o":"m 532 774 l 443 861 l 350 768 l 199 768 l 82 885 l 190 993 l 278 906 l 371 999 l 522 999 l 639 882 "},"¡":{"ha":328,"x_min":0,"x_max":0,"o":"m 81 539 l 81 706 l 247 706 l 247 539 m 56 -183 l 104 451 l 225 451 l 272 -183 "},"¢":{"ha":660,"x_min":0,"x_max":0,"o":"m 504 107 l 401 107 l 401 1 l 279 1 l 279 107 l 174 107 l 63 218 l 63 651 l 174 763 l 279 763 l 279 889 l 401 889 l 401 763 l 504 763 l 615 651 l 615 608 l 224 608 l 224 261 l 615 261 l 615 218 "},"£":{"ha":650,"x_min":0,"x_max":0,"o":"m 1 -1 l 1 29 l 115 154 l 115 306 l 18 306 l 18 386 l 115 386 l 115 494 l 18 494 l 18 575 l 115 575 l 115 778 l 226 889 l 456 889 l 567 778 l 567 735 l 276 735 l 276 575 l 496 575 l 496 494 l 276 494 l 276 386 l 496 386 l 496 306 l 276 306 l 276 154 l 640 154 l 640 111 l 529 0 "},"⁄":{"ha":794,"x_min":0,"x_max":0,"o":"m 190 -35 l 103 15 l 624 922 l 711 872 "},"¥":{"ha":663,"x_min":0,"x_max":0,"o":"m 490 525 l 615 525 l 615 444 l 454 444 l 415 364 l 615 364 l 615 283 l 415 283 l 415 0 l 256 0 l 254 283 l 54 283 l 54 364 l 254 364 l 215 444 l 54 444 l 54 525 l 176 525 l 0 889 l 188 889 l 336 538 l 479 889 l 663 889 "},"ƒ":{"ha":389,"x_min":0,"x_max":0,"o":"m 272 783 l 272 553 l 342 553 l 342 392 l 272 392 l 272 -111 l 161 -222 l 0 -222 l 0 -61 l 111 -61 l 111 392 l 42 392 l 42 553 l 111 553 l 111 833 l 222 944 l 389 944 l 389 783 "},"§":{"ha":692,"x_min":0,"x_max":0,"o":"m 511 -117 l 181 -117 l 69 -6 l 69 44 l 461 44 l 461 161 l 181 161 l 69 272 l 69 439 l 125 494 l 69 550 l 69 778 l 181 889 l 511 889 l 622 778 l 622 728 l 231 728 l 231 606 l 511 606 l 622 494 l 622 328 l 567 272 l 622 217 l 622 -6 m 461 446 l 231 446 l 231 315 l 461 315 "},"¤":{"ha":675,"x_min":0,"x_max":0,"o":"m 525 0 l 194 0 l 83 111 l 83 306 l 0 306 l 0 386 l 83 386 l 83 494 l 0 494 l 0 575 l 83 575 l 83 778 l 194 889 l 525 889 l 636 778 l 636 735 l 244 735 l 244 575 l 533 575 l 533 494 l 244 494 l 244 386 l 533 386 l 533 306 l 244 306 l 244 154 l 636 154 l 636 111 "},"'":{"ha":293,"x_min":0,"x_max":0,"o":"m 197 546 l 96 546 l 69 889 l 224 889 "},"“":{"ha":551,"x_min":0,"x_max":0,"o":"m 390 511 l 293 889 l 482 889 l 482 511 m 167 511 l 69 889 l 258 889 l 258 511 "},"«":{"ha":831,"x_min":0,"x_max":0,"o":"m 675 126 l 385 417 l 675 707 l 775 607 l 585 417 l 775 226 m 346 126 l 56 417 l 346 707 l 446 607 l 256 417 l 446 226 "},"‹":{"ha":501,"x_min":0,"x_max":0,"o":"m 346 124 l 56 414 l 346 704 l 446 604 l 256 414 l 446 224 "},"›":{"ha":501,"x_min":0,"x_max":0,"o":"m 156 124 l 56 224 l 246 414 l 56 604 l 156 704 l 446 414 "},"ﬁ":{"ha":700,"x_min":0,"x_max":0,"o":"m 631 0 l 469 0 l 469 553 l 251 553 l 251 0 l 90 0 l 90 553 l 21 553 l 21 707 l 90 707 l 90 833 l 201 944 l 390 944 l 390 790 l 251 790 l 251 707 l 631 707 m 469 778 l 469 944 l 631 944 l 631 778 "},"ﬂ":{"ha":704,"x_min":0,"x_max":0,"o":"m 635 0 l 472 0 l 472 790 l 251 790 l 251 707 l 390 707 l 390 553 l 251 553 l 251 0 l 90 0 l 90 553 l 21 553 l 21 707 l 90 707 l 90 833 l 201 944 l 635 944 "},"–":{"ha":590,"x_min":0,"x_max":0,"o":"m 35 329 l 35 476 l 556 476 l 556 329 "},"†":{"ha":575,"x_min":0,"x_max":0,"o":"m 344 775 l 344 456 l 231 456 l 231 775 l 83 775 l 83 889 l 231 889 l 231 1036 l 344 1036 l 344 889 l 492 889 l 492 775 "},"‡":{"ha":575,"x_min":0,"x_max":0,"o":"m 344 775 l 344 628 l 231 628 l 231 775 l 83 775 l 83 889 l 231 889 l 231 1036 l 344 1036 l 344 889 l 492 889 l 492 775 m 344 439 l 344 175 l 231 175 l 231 439 l 83 439 l 83 553 l 492 553 l 492 439 "},"·":{"ha":342,"x_min":0,"x_max":0,"o":"m 83 371 l 83 553 l 258 553 l 258 371 "},"¶":{"ha":649,"x_min":0,"x_max":0,"o":"m 433 -222 l 433 346 l 194 346 l 83 457 l 83 778 l 194 889 l 561 889 l 561 -222 "},"•":{"ha":492,"x_min":0,"x_max":0,"o":"m 83 228 l 83 553 l 408 553 l 408 228 "},"‚":{"ha":328,"x_min":0,"x_max":0,"o":"m 161 -196 l 69 -196 l 69 182 l 258 182 "},"„":{"ha":551,"x_min":0,"x_max":0,"o":"m 385 -196 l 293 -196 l 293 182 l 482 182 m 161 -196 l 69 -196 l 69 182 l 258 182 "},"”":{"ha":551,"x_min":0,"x_max":0,"o":"m 385 511 l 293 511 l 293 889 l 482 889 m 161 511 l 69 511 l 69 889 l 258 889 "},"»":{"ha":831,"x_min":0,"x_max":0,"o":"m 485 126 l 385 226 l 575 417 l 385 607 l 485 707 l 775 417 m 156 126 l 56 226 l 246 417 l 56 607 l 156 707 l 446 417 "},"…":{"ha":972,"x_min":0,"x_max":0,"o":"m 747 0 l 747 167 l 914 167 l 914 0 m 414 0 l 414 167 l 581 167 l 581 0 m 81 0 l 81 167 l 247 167 l 247 0 "},"‰":{"ha":1349,"x_min":0,"x_max":0,"o":"m 317 467 l 143 467 l 54 556 l 54 797 l 143 886 l 317 886 l 406 797 l 406 556 m 775 -1 l 601 -1 l 513 88 l 513 329 l 601 418 l 775 418 l 864 329 l 864 88 m 1196 -1 l 1022 -1 l 933 88 l 933 329 l 1022 418 l 1196 418 l 1285 329 l 1285 88 m 575 496 l 226 131 l 150 196 l 535 600 l 535 601 l 1211 601 l 1211 496 m 1157 296 l 1061 296 l 1061 121 l 1157 121 m 278 764 l 182 764 l 182 589 l 278 589 m 736 296 l 640 296 l 640 121 l 736 121 "},"¿":{"ha":578,"x_min":0,"x_max":0,"o":"m 525 -182 l 194 -182 l 83 -71 l 83 232 l 194 343 l 314 343 l 314 453 l 475 453 l 475 293 l 364 182 l 244 182 l 244 -21 l 636 -21 l 636 -71 m 311 540 l 311 707 l 478 707 l 478 540 "},"`":{"ha":564,"x_min":0,"x_max":0,"o":"m 439 893 l 122 978 l 164 1133 l 469 1010 "},"´":{"ha":564,"x_min":0,"x_max":0,"o":"m 185 893 l 154 1010 l 460 1133 l 501 978 "},"ˆ":{"ha":708,"x_min":0,"x_max":0,"o":"m 504 942 l 354 1033 l 204 942 l 126 1019 l 274 1167 l 435 1167 l 582 1019 "},"˜":{"ha":708,"x_min":0,"x_max":0,"o":"m 535 949 l 436 1047 l 340 951 l 194 951 l 75 1071 l 174 1169 l 272 1071 l 368 1167 l 514 1167 l 633 1047 "},"¯":{"ha":708,"x_min":0,"x_max":0,"o":"m 179 950 l 179 1111 l 529 1111 l 529 950 "},"˘":{"ha":708,"x_min":0,"x_max":0,"o":"m 354 839 l 99 975 l 186 1111 l 354 1021 l 522 1110 l 610 975 "},"˙":{"ha":708,"x_min":0,"x_max":0,"o":"m 274 950 l 274 1111 l 435 1111 l 435 950 "},"¨":{"ha":697,"x_min":0,"x_max":0,"o":"m 440 950 l 440 1111 l 601 1111 l 601 950 m 118 950 l 118 1111 l 279 1111 l 279 950 "},"˚":{"ha":708,"x_min":0,"x_max":0,"o":"m 438 889 l 272 889 l 215 944 l 215 1110 l 271 1165 l 436 1165 l 493 1110 l 493 944 m 413 1085 l 296 1085 l 296 969 l 411 969 "},"¸":{"ha":708,"x_min":0,"x_max":0,"o":"m 419 -278 l 289 -278 l 233 -222 l 233 -150 l 314 -150 l 314 -201 l 394 -201 l 394 -112 l 314 -112 l 314 0 l 394 0 l 394 -36 l 419 -36 l 475 -92 l 475 -222 "},"˝":{"ha":708,"x_min":0,"x_max":0,"o":"m 529 889 l 367 889 l 424 1167 l 600 1167 m 271 889 l 108 889 l 165 1167 l 340 1167 "},"˛":{"ha":708,"x_min":0,"x_max":0,"o":"m 486 -242 l 431 -186 l 431 -56 l 486 0 l 592 0 l 592 -76 l 511 -76 l 511 -165 l 672 -165 l 672 -242 "},"ˇ":{"ha":708,"x_min":0,"x_max":0,"o":"m 444 944 l 264 944 l 169 1039 l 169 1167 l 279 1167 l 279 1106 l 354 1028 l 429 1106 l 429 1167 l 539 1167 l 539 1039 "},"—":{"ha":799,"x_min":0,"x_max":0,"o":"m 35 329 l 35 476 l 764 476 l 764 329 "},"Æ":{"ha":1028,"x_min":0,"x_max":0,"o":"m 865 522 l 865 367 l 664 367 l 664 154 l 971 154 l 971 0 l 508 0 l 510 218 l 314 218 l 221 0 l 44 0 l 435 889 l 971 889 l 971 735 l 664 735 l 664 522 m 510 690 l 376 364 l 510 364 "},"Ł":{"ha":647,"x_min":0,"x_max":0,"o":"m 115 0 l 115 390 l 14 369 l 14 489 l 115 510 l 115 889 l 278 889 l 278 547 l 279 547 l 383 569 l 383 450 l 279 428 l 278 428 l 278 154 l 635 154 l 635 0 "},"Ø":{"ha":814,"x_min":0,"x_max":0,"o":"m 683 776 l 683 111 l 572 0 l 242 0 l 188 54 l 136 -22 l 69 22 l 131 113 l 131 778 l 242 889 l 572 889 l 626 835 l 678 911 l 744 867 m 522 735 l 292 735 l 292 347 l 522 685 m 522 542 l 292 204 l 292 154 l 522 154 "},"Œ":{"ha":1000,"x_min":0,"x_max":0,"o":"m 860 522 l 860 367 l 636 367 l 636 154 l 958 154 l 958 0 l 586 0 l 517 69 l 447 0 l 181 0 l 69 111 l 69 778 l 181 889 l 447 889 l 517 819 l 586 889 l 958 889 l 958 735 l 636 735 l 636 522 m 419 735 l 231 735 l 231 154 l 419 154 "},"æ":{"ha":979,"x_min":0,"x_max":0,"o":"m 806 0 l 556 0 l 486 69 l 417 0 l 167 0 l 56 111 l 56 303 l 181 428 l 406 428 l 406 553 l 69 553 l 69 596 l 181 707 l 417 707 l 486 638 l 556 707 l 806 707 l 917 596 l 917 385 l 806 274 l 567 274 l 567 147 l 917 147 l 917 111 m 406 281 l 217 281 l 217 147 l 406 147 m 756 553 l 567 553 l 567 421 l 756 421 "},"ı":{"ha":300,"x_min":0,"x_max":0,"o":"m 231 0 l 69 0 l 69 707 l 231 707 "},"ł":{"ha":369,"x_min":0,"x_max":0,"o":"m 267 544 l 369 567 l 369 447 l 267 425 l 267 0 l 104 0 l 104 389 l 0 367 l 0 486 l 104 510 l 104 890 l 267 944 "},"ø":{"ha":692,"x_min":0,"x_max":0,"o":"m 621 594 l 621 111 l 510 0 l 179 0 l 125 54 l 50 -28 l -8 28 l 68 111 l 68 596 l 179 707 l 510 707 l 564 653 l 640 735 l 699 679 m 460 553 l 229 553 l 229 286 l 460 538 m 460 419 l 229 168 l 229 154 l 460 154 "},"œ":{"ha":993,"x_min":0,"x_max":0,"o":"m 819 0 l 569 0 l 500 69 l 431 0 l 181 0 l 69 111 l 69 596 l 181 707 l 431 707 l 500 638 l 569 707 l 819 707 l 931 596 l 931 392 l 819 281 l 581 281 l 581 154 l 931 154 l 931 111 m 419 553 l 231 553 l 231 154 l 419 154 m 769 553 l 581 553 l 581 421 l 769 421 "},"ß":{"ha":692,"x_min":0,"x_max":0,"o":"m 511 0 l 342 0 l 342 154 l 461 154 l 461 376 l 342 376 l 342 532 l 461 532 l 461 735 l 231 735 l 231 0 l 69 0 l 69 778 l 181 889 l 511 889 l 622 778 l 622 524 l 553 454 l 622 385 l 622 111 "},"™":{"ha":1157,"x_min":0,"x_max":0,"o":"m 449 790 l 315 790 l 315 333 l 154 333 l 154 790 l 21 789 l 21 944 l 449 944 m 1101 335 l 946 335 l 946 647 l 817 482 l 792 482 l 664 647 l 664 335 l 507 335 l 507 949 l 654 949 l 804 658 l 954 949 l 1101 949 "},"Ð":{"ha":719,"x_min":0,"x_max":0,"o":"m 525 0 l 83 0 l 83 411 l 0 411 l 0 511 l 83 511 l 83 889 l 525 889 l 636 778 l 636 111 m 475 735 l 244 735 l 244 511 l 385 511 l 385 411 l 244 411 l 244 154 l 475 154 "},"±":{"ha":678,"x_min":0,"x_max":0,"o":"m 419 392 l 419 217 l 258 217 l 258 392 l 83 392 l 83 553 l 258 553 l 258 726 l 419 726 l 419 553 l 594 553 l 594 392 m 83 0 l 83 154 l 594 154 l 594 0 "},"Þ":{"ha":692,"x_min":0,"x_max":0,"o":"m 511 111 l 311 111 l 231 192 l 231 0 l 69 0 l 69 946 l 231 946 l 231 765 l 311 846 l 511 846 l 622 735 l 622 222 m 461 692 l 231 692 l 231 265 l 461 265 "},"÷":{"ha":688,"x_min":0,"x_max":0,"o":"m 257 546 l 257 728 l 432 728 l 432 546 m 49 329 l 49 476 l 639 476 l 639 329 m 257 76 l 257 258 l 432 258 l 432 76 "},"¦":{"ha":314,"x_min":0,"x_max":0,"o":"m 83 -222 l 83 308 l 231 308 l 231 -222 m 83 469 l 83 943 l 231 943 l 231 469 "},"°":{"ha":443,"x_min":0,"x_max":0,"o":"m 304 567 l 139 567 l 83 622 l 83 833 l 139 889 l 304 889 l 360 833 l 360 622 m 279 808 l 164 808 l 164 647 l 279 647 "},"þ":{"ha":692,"x_min":0,"x_max":0,"o":"m 511 0 l 311 0 l 231 81 l 231 -222 l 69 -222 l 69 889 l 231 943 l 231 626 l 311 707 l 511 707 l 622 596 l 622 111 m 461 553 l 231 553 l 231 154 l 461 154 "},"®":{"ha":765,"x_min":0,"x_max":0,"o":"m 618 288 l 147 288 l 69 365 l 69 865 l 147 943 l 618 943 l 696 865 l 696 365 m 583 836 l 182 836 l 182 394 l 583 394 m 399 443 l 358 538 l 353 538 l 353 439 l 254 439 l 254 793 l 464 793 l 532 725 l 532 606 l 464 538 l 507 443 m 433 699 l 353 699 l 353 636 l 433 636 "},"−":{"ha":528,"x_min":0,"x_max":0,"o":"m 56 329 l 56 476 l 472 476 l 472 329 "},"ð":{"ha":706,"x_min":0,"x_max":0,"o":"m 528 767 l 622 672 l 622 111 l 511 0 l 181 0 l 69 111 l 69 442 l 181 553 l 406 553 l 461 497 l 461 622 l 422 661 l 358 597 l 301 654 l 365 718 l 335 750 l 161 750 l 161 906 l 389 906 l 471 824 l 579 932 l 636 875 m 461 399 l 231 399 l 231 154 l 461 154 "},"×":{"ha":640,"x_min":0,"x_max":0,"o":"m 463 154 l 321 296 l 178 154 l 71 263 l 213 404 l 71 546 l 179 654 l 321 513 l 463 654 l 571 546 l 428 404 l 571 263 "},"©":{"ha":1039,"x_min":0,"x_max":0,"o":"m 858 0 l 181 0 l 69 111 l 69 832 l 181 943 l 858 943 l 969 832 l 969 111 m 808 789 l 231 789 l 231 154 l 808 154 m 624 224 l 425 224 l 314 335 l 314 603 l 425 714 l 624 714 l 735 603 l 735 560 l 475 560 l 475 378 l 735 378 l 735 335 "},"Á":{"ha":657,"x_min":0,"x_max":0,"o":"m 190 951 l 160 1068 l 465 1192 l 507 1036 m 501 0 l 439 218 l 217 218 l 161 0 l 0 0 l 254 889 l 401 889 l 657 0 m 328 631 l 258 364 l 396 364 "},"Â":{"ha":657,"x_min":0,"x_max":0,"o":"m 482 942 l 332 1033 l 182 942 l 104 1019 l 251 1167 l 413 1167 l 560 1019 m 501 0 l 439 218 l 217 218 l 161 0 l 0 0 l 254 889 l 401 889 l 657 0 m 328 631 l 258 364 l 396 364 "},"Ä":{"ha":657,"x_min":0,"x_max":0,"o":"m 414 950 l 414 1111 l 575 1111 l 575 950 m 92 950 l 92 1111 l 253 1111 l 253 950 m 501 0 l 439 218 l 217 218 l 161 0 l 0 0 l 254 889 l 401 889 l 657 0 m 328 631 l 258 364 l 396 364 "},"À":{"ha":657,"x_min":0,"x_max":0,"o":"m 463 951 l 146 1036 l 188 1192 l 493 1068 m 501 0 l 439 218 l 217 218 l 161 0 l 0 0 l 254 889 l 401 889 l 657 0 m 328 631 l 258 364 l 396 364 "},"Å":{"ha":657,"x_min":0,"x_max":0,"o":"m 501 0 l 439 218 l 217 218 l 161 0 l 0 0 l 254 889 l 401 889 l 657 0 m 328 631 l 258 364 l 396 364 m 413 889 l 247 889 l 190 944 l 190 1110 l 246 1165 l 411 1165 l 468 1110 l 468 944 m 388 1085 l 271 1085 l 271 969 l 386 969 "},"Ã":{"ha":657,"x_min":0,"x_max":0,"o":"m 494 949 l 396 1047 l 300 951 l 154 951 l 33 1071 l 132 1169 l 231 1071 l 326 1167 l 472 1167 l 593 1047 m 501 0 l 439 218 l 217 218 l 161 0 l 0 0 l 254 889 l 401 889 l 657 0 m 328 631 l 258 364 l 396 364 "},"Ç":{"ha":640,"x_min":0,"x_max":0,"o":"m 494 0 l 383 0 l 383 -35 l 408 -35 l 464 -90 l 464 -221 l 408 -276 l 278 -276 l 222 -221 l 222 -149 l 303 -149 l 303 -196 l 383 -196 l 383 -115 l 303 -115 l 303 0 l 181 0 l 69 111 l 69 778 l 181 889 l 494 889 l 606 778 l 606 735 l 231 735 l 231 154 l 606 154 l 606 111 "},"É":{"ha":665,"x_min":0,"x_max":0,"o":"m 260 951 l 229 1068 l 535 1192 l 576 1036 m 69 0 l 69 889 l 624 889 l 624 735 l 232 735 l 232 525 l 497 525 l 497 364 l 232 364 l 232 154 l 624 154 l 624 0 "},"Ê":{"ha":665,"x_min":0,"x_max":0,"o":"m 538 942 l 388 1033 l 238 942 l 160 1019 l 307 1167 l 468 1167 l 615 1019 m 69 0 l 69 889 l 624 889 l 624 735 l 232 735 l 232 525 l 497 525 l 497 364 l 232 364 l 232 154 l 624 154 l 624 0 "},"Ë":{"ha":665,"x_min":0,"x_max":0,"o":"m 440 950 l 440 1111 l 601 1111 l 601 950 m 118 950 l 118 1111 l 279 1111 l 279 950 m 69 0 l 69 889 l 624 889 l 624 735 l 232 735 l 232 525 l 497 525 l 497 364 l 232 364 l 232 154 l 624 154 l 624 0 "},"È":{"ha":665,"x_min":0,"x_max":0,"o":"m 546 951 l 229 1036 l 271 1192 l 576 1068 m 69 0 l 69 889 l 624 889 l 624 735 l 232 735 l 232 525 l 497 525 l 497 364 l 232 364 l 232 154 l 624 154 l 624 0 "},"Í":{"ha":300,"x_min":0,"x_max":0,"o":"m 4 951 l -26 1068 l 279 1192 l 321 1036 m 231 0 l 69 0 l 69 889 l 231 889 "},"Î":{"ha":300,"x_min":0,"x_max":0,"o":"m 294 942 l 146 1033 l -4 942 l -82 1019 l 65 1167 l 225 1167 l 374 1019 m 231 0 l 69 0 l 69 889 l 231 889 "},"Ï":{"ha":300,"x_min":0,"x_max":0,"o":"m 229 950 l 229 1111 l 390 1111 l 390 950 m -93 950 l -93 1111 l 68 1111 l 68 950 m 231 0 l 69 0 l 69 889 l 231 889 "},"Ì":{"ha":300,"x_min":0,"x_max":0,"o":"m 325 951 l 8 1036 l 50 1192 l 356 1068 m 231 0 l 69 0 l 69 889 l 231 889 "},"Ñ":{"ha":699,"x_min":0,"x_max":0,"o":"m 531 949 l 432 1047 l 336 951 l 190 951 l 69 1071 l 168 1169 l 267 1071 l 363 1167 l 508 1167 l 629 1047 m 485 0 l 231 504 l 232 0 l 72 0 l 72 889 l 213 889 l 467 385 l 467 889 l 625 889 l 625 0 "},"Ó":{"ha":692,"x_min":0,"x_max":0,"o":"m 181 951 l 150 1068 l 456 1192 l 497 1036 m 511 0 l 181 0 l 69 111 l 69 778 l 181 889 l 511 889 l 622 778 l 622 111 m 461 735 l 231 735 l 231 154 l 461 154 "},"Ô":{"ha":692,"x_min":0,"x_max":0,"o":"m 499 942 l 349 1033 l 199 942 l 121 1019 l 268 1167 l 429 1167 l 576 1019 m 511 0 l 181 0 l 69 111 l 69 778 l 181 889 l 511 889 l 622 778 l 622 111 m 461 735 l 231 735 l 231 154 l 461 154 "},"Ö":{"ha":692,"x_min":0,"x_max":0,"o":"m 426 950 l 426 1111 l 588 1111 l 588 950 m 104 950 l 104 1111 l 265 1111 l 265 950 m 511 0 l 181 0 l 69 111 l 69 778 l 181 889 l 511 889 l 622 778 l 622 111 m 461 735 l 231 735 l 231 154 l 461 154 "},"Ò":{"ha":692,"x_min":0,"x_max":0,"o":"m 504 951 l 188 1036 l 229 1192 l 535 1068 m 511 0 l 181 0 l 69 111 l 69 778 l 181 889 l 511 889 l 622 778 l 622 111 m 461 735 l 231 735 l 231 154 l 461 154 "},"Õ":{"ha":704,"x_min":0,"x_max":0,"o":"m 531 949 l 432 1047 l 336 951 l 190 951 l 69 1071 l 168 1169 l 267 1071 l 363 1167 l 508 1167 l 629 1047 m 524 0 l 193 0 l 82 111 l 82 778 l 193 889 l 524 889 l 635 778 l 635 111 m 474 735 l 243 735 l 243 154 l 474 154 "},"Š":{"ha":692,"x_min":0,"x_max":0,"o":"m 460 944 l 279 944 l 185 1039 l 185 1167 l 294 1167 l 294 1106 l 369 1028 l 444 1106 l 444 1167 l 554 1167 l 554 1039 m 511 0 l 143 0 l 72 71 l 72 164 l 454 164 l 454 369 l 181 369 l 69 481 l 69 778 l 181 889 l 549 889 l 619 818 l 619 725 l 238 725 l 238 533 l 511 533 l 622 421 l 622 111 "},"Ú":{"ha":692,"x_min":0,"x_max":0,"o":"m 240 951 l 210 1068 l 515 1192 l 557 1036 m 511 0 l 181 0 l 69 111 l 69 889 l 231 889 l 231 154 l 461 154 l 461 889 l 622 889 l 622 111 "},"Û":{"ha":692,"x_min":0,"x_max":0,"o":"m 494 942 l 344 1033 l 194 942 l 117 1019 l 264 1167 l 425 1167 l 572 1019 m 511 0 l 181 0 l 69 111 l 69 889 l 231 889 l 231 154 l 461 154 l 461 889 l 622 889 l 622 111 "},"Ü":{"ha":692,"x_min":0,"x_max":0,"o":"m 425 950 l 425 1111 l 586 1111 l 586 950 m 103 950 l 103 1111 l 264 1111 l 264 950 m 511 0 l 181 0 l 69 111 l 69 889 l 231 889 l 231 154 l 461 154 l 461 889 l 622 889 l 622 111 "},"Ù":{"ha":692,"x_min":0,"x_max":0,"o":"m 449 951 l 132 1036 l 174 1192 l 479 1068 m 511 0 l 181 0 l 69 111 l 69 889 l 231 889 l 231 154 l 461 154 l 461 889 l 622 889 l 622 111 "},"Ý":{"ha":663,"x_min":0,"x_max":0,"o":"m 208 951 l 178 1068 l 483 1192 l 525 1036 m 415 364 l 415 0 l 256 0 l 254 364 l 0 889 l 188 889 l 336 538 l 479 889 l 663 889 "},"Ÿ":{"ha":663,"x_min":0,"x_max":0,"o":"m 443 950 l 443 1111 l 604 1111 l 604 950 m 121 950 l 121 1111 l 282 1111 l 282 950 m 415 364 l 415 0 l 256 0 l 254 364 l 0 889 l 188 889 l 336 538 l 479 889 l 663 889 "},"Ž":{"ha":636,"x_min":0,"x_max":0,"o":"m 404 944 l 224 944 l 129 1039 l 129 1167 l 239 1167 l 239 1106 l 314 1028 l 389 1106 l 389 1167 l 499 1167 l 499 1039 m 42 0 l 42 161 l 406 735 l 42 733 l 42 889 l 594 889 l 594 728 l 231 154 l 594 153 l 594 0 "},"á":{"ha":678,"x_min":0,"x_max":0,"o":"m 204 768 l 174 885 l 479 1008 l 521 853 m 608 0 l 572 0 l 447 81 l 367 0 l 167 0 l 56 111 l 56 303 l 181 428 l 447 428 l 447 553 l 69 553 l 69 596 l 181 707 l 497 707 l 608 596 m 447 281 l 217 281 l 217 147 l 447 147 "},"â":{"ha":678,"x_min":0,"x_max":0,"o":"m 489 769 l 339 861 l 189 769 l 111 847 l 258 994 l 419 994 l 567 847 m 608 0 l 572 0 l 447 81 l 367 0 l 167 0 l 56 111 l 56 303 l 181 428 l 447 428 l 447 553 l 69 553 l 69 596 l 181 707 l 497 707 l 608 596 m 447 281 l 217 281 l 217 147 l 447 147 "},"ä":{"ha":678,"x_min":0,"x_max":0,"o":"m 413 790 l 413 951 l 574 951 l 574 790 m 90 790 l 90 951 l 251 951 l 251 790 m 608 0 l 572 0 l 447 81 l 367 0 l 167 0 l 56 111 l 56 303 l 181 428 l 447 428 l 447 553 l 69 553 l 69 596 l 181 707 l 497 707 l 608 596 m 447 281 l 217 281 l 217 147 l 447 147 "},"à":{"ha":678,"x_min":0,"x_max":0,"o":"m 469 768 l 153 853 l 194 1008 l 500 885 m 608 0 l 572 0 l 447 81 l 367 0 l 167 0 l 56 111 l 56 303 l 181 428 l 447 428 l 447 553 l 69 553 l 69 596 l 181 707 l 497 707 l 608 596 m 447 281 l 217 281 l 217 147 l 447 147 "},"å":{"ha":678,"x_min":0,"x_max":0,"o":"m 418 768 l 253 768 l 197 824 l 197 989 l 253 1044 l 418 1044 l 474 989 l 474 824 m 393 964 l 278 964 l 278 849 l 393 849 m 608 0 l 572 0 l 447 81 l 367 0 l 167 0 l 56 111 l 56 303 l 181 428 l 447 428 l 447 553 l 69 553 l 69 596 l 181 707 l 497 707 l 608 596 m 447 281 l 217 281 l 217 147 l 447 147 "},"ã":{"ha":685,"x_min":0,"x_max":0,"o":"m 517 779 l 418 878 l 322 782 l 176 782 l 56 903 l 154 1001 l 253 901 l 349 999 l 494 999 l 615 878 m 608 0 l 572 0 l 447 81 l 367 0 l 167 0 l 56 111 l 56 303 l 181 428 l 447 428 l 447 553 l 69 553 l 69 596 l 181 707 l 497 707 l 608 596 m 447 281 l 217 281 l 217 147 l 447 147 "},"ç":{"ha":657,"x_min":0,"x_max":0,"o":"m 511 0 l 381 0 l 381 -36 l 406 -36 l 461 -92 l 461 -222 l 406 -278 l 275 -278 l 219 -222 l 219 -150 l 300 -150 l 300 -197 l 381 -197 l 381 -117 l 300 -117 l 300 0 l 181 0 l 69 111 l 69 596 l 181 707 l 511 707 l 622 596 l 622 553 l 231 553 l 231 154 l 622 154 l 622 111 "},"é":{"ha":685,"x_min":0,"x_max":0,"o":"m 232 768 l 201 885 l 507 1008 l 549 853 m 511 0 l 181 0 l 69 111 l 69 596 l 181 707 l 511 707 l 622 596 l 622 385 l 511 274 l 231 274 l 231 147 l 622 147 l 622 111 m 461 553 l 231 553 l 231 421 l 461 421 "},"ê":{"ha":685,"x_min":0,"x_max":0,"o":"m 492 769 l 342 861 l 192 769 l 114 847 l 261 994 l 422 994 l 569 847 m 511 0 l 181 0 l 69 111 l 69 596 l 181 707 l 511 707 l 622 596 l 622 385 l 511 274 l 231 274 l 231 147 l 622 147 l 622 111 m 461 553 l 231 553 l 231 421 l 461 421 "},"ë":{"ha":685,"x_min":0,"x_max":0,"o":"m 424 790 l 424 951 l 585 951 l 585 790 m 101 790 l 101 951 l 263 951 l 263 790 m 511 0 l 181 0 l 69 111 l 69 596 l 181 707 l 511 707 l 622 596 l 622 385 l 511 274 l 231 274 l 231 147 l 622 147 l 622 111 m 461 553 l 231 553 l 231 421 l 461 421 "},"è":{"ha":685,"x_min":0,"x_max":0,"o":"m 518 768 l 201 853 l 243 1008 l 549 885 m 511 0 l 181 0 l 69 111 l 69 596 l 181 707 l 511 707 l 622 596 l 622 385 l 511 274 l 231 274 l 231 147 l 622 147 l 622 111 m 461 553 l 231 553 l 231 421 l 461 421 "},"í":{"ha":300,"x_min":0,"x_max":0,"o":"m -3 768 l -33 885 l 272 1008 l 314 853 m 231 0 l 69 0 l 69 707 l 231 707 "},"î":{"ha":300,"x_min":0,"x_max":0,"o":"m 300 769 l 150 861 l 0 769 l -78 847 l 69 994 l 231 994 l 378 847 m 231 0 l 69 0 l 69 707 l 231 707 "},"ï":{"ha":300,"x_min":0,"x_max":0,"o":"m 201 790 l 201 951 l 363 951 l 363 790 m -58 790 l -58 951 l 103 951 l 103 790 m 231 0 l 69 0 l 69 707 l 231 707 "},"ì":{"ha":300,"x_min":0,"x_max":0,"o":"m 289 768 l -28 853 l 14 1008 l 319 885 m 231 0 l 69 0 l 69 707 l 231 707 "},"ñ":{"ha":678,"x_min":0,"x_max":0,"o":"m 526 779 l 428 878 l 332 782 l 186 782 l 65 901 l 164 1000 l 263 901 l 358 997 l 504 997 l 625 878 m 608 0 l 447 0 l 447 553 l 231 553 l 231 0 l 69 0 l 69 707 l 106 707 l 231 626 l 311 707 l 497 707 l 608 596 "},"ó":{"ha":692,"x_min":0,"x_max":0,"o":"m 218 768 l 188 885 l 493 1008 l 535 853 m 511 0 l 181 0 l 69 111 l 69 596 l 181 707 l 511 707 l 622 596 l 622 111 m 461 553 l 231 553 l 231 154 l 461 154 "},"ô":{"ha":692,"x_min":0,"x_max":0,"o":"m 496 769 l 346 861 l 196 769 l 118 847 l 265 994 l 426 994 l 574 847 m 511 0 l 181 0 l 69 111 l 69 596 l 181 707 l 511 707 l 622 596 l 622 111 m 461 553 l 231 553 l 231 154 l 461 154 "},"ö":{"ha":692,"x_min":0,"x_max":0,"o":"m 426 790 l 426 951 l 588 951 l 588 790 m 104 790 l 104 951 l 265 951 l 265 790 m 511 0 l 181 0 l 69 111 l 69 596 l 181 707 l 511 707 l 622 596 l 622 111 m 461 553 l 231 553 l 231 154 l 461 154 "},"ò":{"ha":692,"x_min":0,"x_max":0,"o":"m 504 768 l 188 853 l 229 1008 l 535 885 m 511 0 l 181 0 l 69 111 l 69 596 l 181 707 l 511 707 l 622 596 l 622 111 m 461 553 l 231 553 l 231 154 l 461 154 "},"õ":{"ha":692,"x_min":0,"x_max":0,"o":"m 531 779 l 432 878 l 336 782 l 190 782 l 69 903 l 168 1000 l 267 901 l 363 997 l 508 997 l 629 878 m 514 0 l 183 0 l 72 111 l 72 596 l 183 707 l 514 707 l 625 596 l 625 111 m 464 553 l 233 553 l 233 154 l 464 154 "},"š":{"ha":650,"x_min":0,"x_max":0,"o":"m 417 769 l 236 769 l 142 864 l 142 992 l 251 992 l 251 931 l 326 853 l 401 931 l 401 992 l 511 992 l 511 864 m 469 0 l 181 0 l 69 111 l 69 203 l 231 203 l 231 147 l 419 147 l 419 281 l 181 281 l 69 392 l 69 596 l 181 707 l 469 707 l 581 596 l 581 504 l 419 504 l 419 560 l 231 560 l 231 433 l 469 433 l 581 322 l 581 111 "},"ú":{"ha":678,"x_min":0,"x_max":0,"o":"m 239 768 l 208 885 l 514 1008 l 556 853 m 608 0 l 572 0 l 447 81 l 367 0 l 181 0 l 69 111 l 69 707 l 231 707 l 231 154 l 447 154 l 447 707 l 608 707 "},"û":{"ha":678,"x_min":0,"x_max":0,"o":"m 493 769 l 343 861 l 193 769 l 115 847 l 263 994 l 424 994 l 571 847 m 608 0 l 572 0 l 447 81 l 367 0 l 181 0 l 69 111 l 69 707 l 231 707 l 231 154 l 447 154 l 447 707 l 608 707 "},"ü":{"ha":678,"x_min":0,"x_max":0,"o":"m 422 790 l 422 951 l 583 951 l 583 790 m 100 790 l 100 951 l 261 951 l 261 790 m 608 0 l 572 0 l 447 81 l 367 0 l 181 0 l 69 111 l 69 707 l 231 707 l 231 154 l 447 154 l 447 707 l 608 707 "},"ù":{"ha":678,"x_min":0,"x_max":0,"o":"m 490 768 l 174 853 l 215 1008 l 521 885 m 608 0 l 572 0 l 447 81 l 367 0 l 181 0 l 69 111 l 69 707 l 231 707 l 231 154 l 447 154 l 447 707 l 608 707 "},"ý":{"ha":649,"x_min":0,"x_max":0,"o":"m 233 769 l 203 886 l 508 1010 l 550 854 m 324 -189 l 156 -189 l 254 69 l 0 707 l 172 707 l 335 286 l 478 707 l 649 707 "},"ÿ":{"ha":649,"x_min":0,"x_max":0,"o":"m 440 790 l 440 951 l 601 951 l 601 790 m 118 790 l 118 951 l 279 951 l 279 790 m 324 -189 l 156 -189 l 254 69 l 0 707 l 172 707 l 335 286 l 478 707 l 649 707 "},"ž":{"ha":588,"x_min":0,"x_max":0,"o":"m 410 769 l 229 769 l 135 864 l 135 992 l 244 992 l 244 931 l 319 853 l 394 931 l 394 992 l 504 992 l 504 864 m 35 0 l 35 147 l 353 560 l 35 560 l 35 707 l 553 707 l 553 560 l 235 147 l 553 150 l 553 0 "},"\r":{"ha":347,"x_min":0,"x_max":0,"o":""},"€":{"ha":706,"x_min":0,"x_max":0,"o":"m 525 0 l 194 0 l 83 111 l 83 306 l 0 306 l 0 386 l 83 386 l 83 494 l 0 494 l 0 575 l 83 575 l 83 778 l 194 889 l 525 889 l 636 778 l 636 735 l 244 735 l 244 575 l 533 575 l 533 494 l 244 494 l 244 386 l 533 386 l 533 306 l 244 306 l 244 154 l 636 154 l 636 111 "}}}
